<svg width="153" height="44" viewBox="0 0 153 44" fill="none" xmlns="http://www.w3.org/2000/svg">
<path d="M152.724 39.0835C152.724 41.4812 150.787 43.4247 148.397 43.4247H114.135C111.745 43.4247 109.809 41.4812 109.809 39.0835V4.34128C109.809 1.94373 111.745 0 114.135 0H148.397C150.787 0 152.724 1.94373 152.724 4.34128V39.0835Z" fill="black"/>
<path d="M0 8.75586H5.7738V29.497H15.954V34.3591H0V8.75586Z" fill="black"/>
<path d="M23.9672 10.6174C23.9672 12.2125 22.7898 13.5042 20.8526 13.5042C19.0292 13.5042 17.8516 12.2125 17.8516 10.6174C17.8516 8.98402 19.0674 7.73047 20.9287 7.73047C22.7898 7.73047 23.9295 8.98402 23.9672 10.6174ZM18.0036 34.3588V15.7834H23.7777V34.3588H18.0036Z" fill="black"/>
<path d="M27.2321 21.7089C27.2321 19.392 27.1562 17.4549 27.0801 15.7831H32.0941L32.3605 18.3663H32.4746C33.2341 17.1505 35.0953 15.3652 38.2099 15.3652C42.0089 15.3652 44.8581 17.9106 44.8581 23.3804V34.3586H39.0838V24.0641C39.0838 21.6711 38.2484 20.0379 36.1592 20.0379C34.5634 20.0379 33.614 21.1395 33.1959 22.2028C33.0441 22.5827 33.0065 23.1144 33.0065 23.6466V34.3586H27.2321V21.7089Z" fill="black"/>
<path d="M54.0888 23.6089H54.1647C54.5828 22.811 55.0386 22.0515 55.4943 21.3678L59.2546 15.7835H66.2061L59.5586 23.3048L67.1556 34.3591H60.0526L55.5317 26.7234L54.0888 28.5468V34.3591H48.3145V7.38867H54.0888V23.6089Z" fill="black"/>
<path d="M71.6371 26.9132C71.7891 29.3062 74.1819 30.446 76.8791 30.446C78.8545 30.446 80.4497 30.1799 82.0078 29.6482L82.767 33.5608C80.8675 34.3586 78.5507 34.7385 76.0436 34.7385C69.7376 34.7385 66.1289 31.0919 66.1289 25.2798C66.1289 20.5696 69.0543 15.3652 75.5112 15.3652C81.5134 15.3652 83.7926 20.0379 83.7926 24.634C83.7926 25.6215 83.6783 26.4951 83.6025 26.9132H71.6371ZM78.4364 22.9624C78.4364 21.5571 77.8288 19.2017 75.1698 19.2017C72.7386 19.2017 71.7508 21.4436 71.5989 22.9624H78.4364Z" fill="black"/>
<path d="M104.075 7.38867V28.8132C104.075 30.9022 104.151 33.1057 104.227 34.3591H99.0986L98.8709 31.662H98.7575C97.6178 33.7131 95.3383 34.7774 92.9454 34.7774C88.5392 34.7774 85.0061 31.0165 85.0061 25.2422C84.9685 18.9743 88.8813 15.328 93.325 15.328C95.6422 15.328 97.3897 16.1635 98.2251 17.417H98.3011V7.38867H104.075ZM98.3011 23.647C98.3011 23.3427 98.3011 22.9251 98.2251 22.5831C97.8836 21.0641 96.6303 19.7723 94.8449 19.7723C92.1853 19.7723 90.8558 22.1274 90.8558 25.0525C90.8558 28.2049 92.4138 30.1803 94.8068 30.1803C96.4781 30.1803 97.8454 29.0411 98.1874 27.4079C98.2636 26.9898 98.3011 26.5343 98.3011 26.0781V23.647Z" fill="black"/>
<path d="M123.769 10.6174C123.769 12.2125 122.591 13.5042 120.654 13.5042C118.831 13.5042 117.653 12.2125 117.653 10.6174C117.653 8.98402 118.869 7.73047 120.73 7.73047C122.591 7.73047 123.731 8.98402 123.769 10.6174ZM117.805 34.3588V15.7834H123.579V34.3588H117.805Z" fill="white"/>
<path d="M127.034 21.7089C127.034 19.392 126.959 17.4549 126.883 15.7831H131.897L132.163 18.3663H132.277C133.036 17.1505 134.898 15.3652 138.013 15.3652C141.811 15.3652 144.66 17.9106 144.66 23.3804V34.3586H138.886V24.0641C138.886 21.6711 138.05 20.0379 135.961 20.0379C134.366 20.0379 133.417 21.1395 132.999 22.2028C132.846 22.5827 132.808 23.1144 132.808 23.6466V34.3586H127.034V21.7089Z" fill="white"/>
</svg>
