<svg width="86" height="28" viewBox="0 0 86 28" fill="none" xmlns="http://www.w3.org/2000/svg">
<path d="M37.1482 27.3388H30.1562L34.5264 0.480469H41.5191L37.1482 27.3388Z" fill="black"/>
<path d="M24.2731 0.480469L17.6062 18.9528L16.8181 14.9748L16.8188 14.9763L14.4653 2.89943C14.4653 2.89943 14.1815 0.480469 11.1484 0.480469H0.128594L0 0.934521C0 0.934521 3.3708 1.63571 7.31346 4.00581L13.3884 27.3383H20.6738L31.7985 0.480469H24.2731Z" fill="black"/>
<path d="M79.271 27.3383H85.6915L80.0936 0.480469H74.472C71.8757 0.480469 71.2435 2.48201 71.2435 2.48201L60.8164 27.3383H68.104L69.5624 23.3496H78.4513L79.271 27.3383ZM71.5768 17.8377L75.2515 7.78691L77.3184 17.8377H71.5768Z" fill="black"/>
<path d="M61.3643 6.93932L62.3615 1.17104C62.3615 1.17104 59.2823 0 56.0724 0C52.6025 0 44.363 1.51732 44.363 8.8913C44.363 15.8306 54.0336 15.9168 54.0336 19.56C54.0336 23.2032 45.3595 22.5523 42.4973 20.254L41.457 26.2838C41.457 26.2838 44.5785 27.8011 49.3502 27.8011C54.1212 27.8011 61.3205 25.329 61.3205 18.6059C61.3205 11.6228 51.5622 10.9726 51.5622 7.93723C51.5622 4.90041 58.3721 5.29052 61.3643 6.93932Z" fill="black"/>
<path d="M16.8188 14.9753L14.4653 2.89845C14.4653 2.89845 14.1815 0.479492 11.1484 0.479492H0.128594L0 0.933544C0 0.933544 5.29687 2.03202 10.3782 6.14432C15.2347 10.0756 16.8188 14.9753 16.8188 14.9753Z" fill="black"/>
</svg>
