<svg width="155" height="52" viewBox="0 0 155 52" fill="none" xmlns="http://www.w3.org/2000/svg">
<path d="M91.1105 15.7041H91.0994C85.2757 15.7041 80.5635 20.4276 80.5635 26.2403C80.5635 32.0641 85.2757 36.7876 91.0994 36.7876C96.9231 36.7876 101.646 32.0752 101.646 26.2514C101.646 20.4276 96.9342 15.7041 91.1105 15.7041ZM95.5672 30.7193C93.0888 33.1866 89.0878 33.1755 86.6205 30.7082C84.1644 28.2408 84.1644 24.2398 86.6205 21.7724C89.0878 19.294 93.0888 19.294 95.5672 21.7613L95.5783 21.7724C98.0567 24.2398 98.0456 28.252 95.5672 30.7193Z" fill="black"/>
<path d="M78.4521 32.6294L77.3962 32.5738H67.905L80.5637 19.9148L80.5081 18.8589C80.4637 17.1585 79.0967 15.7915 77.3962 15.747L76.3404 15.6914H60.5254L60.581 16.7473C60.6588 18.4255 62.0035 19.7814 63.6928 19.8592L64.7487 19.9148H74.2399L61.5812 32.5738L61.6368 33.6296C61.6924 35.319 63.0594 36.686 64.7487 36.7416L65.8045 36.7972H81.6195L81.564 35.7413C81.4195 33.9964 80.1858 32.7294 78.4521 32.6294Z" fill="black"/>
<path d="M145.947 15.7032C143.524 15.7032 141.224 16.7479 139.623 18.5595C136.823 15.3809 132.088 14.7696 128.576 17.148C127.765 16.2256 125.92 15.7032 124.864 15.7032V36.7978L125.92 36.7423C127.676 36.6311 128.965 35.3863 129.032 33.6303L129.088 32.5745V25.1947L129.143 24.1388C129.143 23.4053 129.332 22.6829 129.665 22.0272C130.821 20.0155 133.4 19.3264 135.422 20.4934C136.056 20.8602 136.589 21.3936 136.956 22.0272H136.945C137.29 22.6829 137.467 23.4053 137.467 24.1388L137.523 25.1947V32.5745L137.579 33.6303C137.645 35.3197 138.99 36.6756 140.679 36.7423L141.735 36.7978V25.1947L141.791 24.1388C141.791 23.3942 141.969 22.6718 142.313 22.016C143.48 20.0044 146.07 19.3153 148.081 20.4934C148.715 20.8602 149.248 21.3936 149.615 22.0272C149.948 22.6829 150.126 23.4053 150.126 24.1388L150.182 25.1947V32.5745L150.237 33.6303C150.293 35.3197 151.649 36.6756 153.338 36.7423L154.394 36.7978V24.1388C154.383 19.482 150.604 15.7032 145.947 15.7032Z" fill="black"/>
<path d="M120.708 18.7938C118.729 16.8155 116.051 15.7041 113.25 15.7041C110.449 15.7041 107.771 16.8155 105.793 18.7938C101.681 22.9172 101.681 29.5968 105.804 33.709C109.927 37.8212 116.607 37.8212 120.719 33.6979C124.842 29.5857 124.831 22.9061 120.708 18.7938ZM117.718 30.7193C115.239 33.1866 111.239 33.1755 108.771 30.7082C106.315 28.2408 106.315 24.2398 108.771 21.7724C111.239 19.294 115.239 19.294 117.718 21.7613L117.729 21.7724C120.207 24.2398 120.196 28.252 117.718 30.7193Z" fill="black"/>
<path d="M0.677734 0.677734H51.8237V51.825H0.677734V0.677734Z" fill="black"/>
<path d="M9.11328 16.4932H42.8661V35.9985H9.11328V16.4932Z" fill="white"/>
</svg>
